<?xml version="1.0" encoding="UTF-8"?>
<svg version="1.1" xmlns="http://www.w3.org/2000/svg" width="500" height="500">
<path d="M0 0 C12.6766429 10.10430222 21.36521001 23.62101163 24.23876953 39.71582031 C25.14408284 50.0357446 25.24717242 61.04680546 21.23876953 70.71582031 C20.56007813 72.37291016 20.56007813 72.37291016 19.86767578 74.06347656 C16.0996328 82.36762885 11.24048472 88.6384012 4.81054688 95.11132812 C3.18546455 96.77023478 1.60902284 98.46520723 0.03955078 100.17675781 C-8.99286954 110.00683972 -18.40772221 119.43609853 -27.90063477 128.81835938 C-28.66927605 129.58060318 -28.66927605 129.58060318 -29.45344543 130.35824585 C-30.8612161 131.75398701 -32.27183245 133.14685625 -33.68261719 134.53955078 C-35.79432648 136.5366986 -35.79432648 136.5366986 -36.76123047 138.71582031 C-37.42123047 138.71582031 -38.08123047 138.71582031 -38.76123047 138.71582031 C-38.76123047 139.37582031 -38.76123047 140.03582031 -38.76123047 140.71582031 C-39.42123047 140.71582031 -40.08123047 140.71582031 -40.76123047 140.71582031 C-40.76123047 141.37582031 -40.76123047 142.03582031 -40.76123047 142.71582031 C-41.42123047 142.71582031 -42.08123047 142.71582031 -42.76123047 142.71582031 C-43.09123047 143.70582031 -43.42123047 144.69582031 -43.76123047 145.71582031 C-44.42123047 145.71582031 -45.08123047 145.71582031 -45.76123047 145.71582031 C-46.06830933 146.51294434 -46.06830933 146.51294434 -46.3815918 147.32617188 C-48.33747312 150.71392031 -51.05929686 153.23844662 -53.83544922 155.95019531 C-54.43750687 156.54705139 -55.03956451 157.14390747 -55.65986633 157.7588501 C-57.58478962 159.66599596 -59.51624394 161.56634097 -61.44873047 163.46582031 C-63.97686136 165.95720047 -66.50181437 168.45173557 -69.02294922 170.95019531 C-69.62872299 171.55051575 -70.23449677 172.15083618 -70.85862732 172.76934814 C-74.47394265 176.3729837 -77.92964507 180.05449545 -81.23266602 183.94921875 C-84.10707259 187.27124494 -87.22039881 190.35931226 -90.32373047 193.46582031 C-90.95730469 194.11164063 -91.59087891 194.75746094 -92.24365234 195.42285156 C-95.06975988 198.25769063 -97.66522057 200.65277075 -101.02685547 202.86035156 C-104.02142379 204.89238006 -105.19379532 206.52454854 -106.94873047 209.65332031 C-122.65063413 235.63788655 -149.38883568 254.20905429 -178.65966797 261.77832031 C-182.01890316 262.53615211 -185.36075327 263.17571911 -188.76123047 263.71582031 C-189.958125 263.91111328 -189.958125 263.91111328 -191.17919922 264.11035156 C-205.19162707 265.91918476 -219.89268721 265.13888516 -233.76123047 262.71582031 C-234.42799805 262.60286621 -235.09476563 262.48991211 -235.78173828 262.37353516 C-258.85181316 258.26840273 -280.44230325 246.48910281 -296.76123047 229.71582031 C-300.55978126 231.28459535 -302.9614505 233.68105153 -305.82373047 236.59082031 C-306.68095703 237.45449219 -307.53818359 238.31816406 -308.42138672 239.20800781 C-310.75146439 241.6024886 -310.75146439 241.6024886 -312.44482422 244.03613281 C-312.87923828 244.59042969 -313.31365234 245.14472656 -313.76123047 245.71582031 C-314.42123047 245.71582031 -315.08123047 245.71582031 -315.76123047 245.71582031 C-315.76123047 246.37582031 -315.76123047 247.03582031 -315.76123047 247.71582031 C-316.42123047 247.71582031 -317.08123047 247.71582031 -317.76123047 247.71582031 C-318.03418945 248.31344177 -318.30714844 248.91106323 -318.58837891 249.52679443 C-319.72822915 251.65422621 -320.8333799 253.04122503 -322.52685547 254.74023438 C-323.08083008 255.30051331 -323.63480469 255.86079224 -324.20556641 256.43804932 C-324.80143555 257.02987 -325.39730469 257.62169067 -326.01123047 258.23144531 C-326.62514648 258.84727478 -327.2390625 259.46310425 -327.87158203 260.09759521 C-329.1669753 261.39434677 -330.46488691 262.68858688 -331.76513672 263.98046875 C-333.76098115 265.96557233 -335.74589772 267.96115622 -337.72998047 269.95800781 C-338.98975602 271.21646243 -340.25015148 272.47429685 -341.51123047 273.73144531 C-342.40503418 274.63132172 -342.40503418 274.63132172 -343.31689453 275.54937744 C-347.531298 279.71582031 -347.531298 279.71582031 -349.76123047 279.71582031 C-349.76123047 280.37582031 -349.76123047 281.03582031 -349.76123047 281.71582031 C-351.94600577 282.99153516 -354.13384666 284.26142704 -356.32373047 285.52832031 C-356.9328125 285.88474609 -357.54189453 286.24117188 -358.16943359 286.60839844 C-373.28408356 295.32531297 -389.15686574 297.07959204 -406.02758789 292.62036133 C-421.5685288 288.02509732 -435.39574981 276.1372166 -443.26123047 262.02441406 C-444.56761283 259.29112002 -445.69903119 256.55237519 -446.76123047 253.71582031 C-447.08091797 252.89984375 -447.40060547 252.08386719 -447.72998047 251.24316406 C-452.61187398 236.62008488 -450.79327787 219.00487722 -444.10107422 205.32128906 C-436.42919307 192.04121554 -424.87142329 181.71186195 -414.04711914 171.03759766 C-413.24894775 170.24820801 -412.45077637 169.45881836 -411.62841797 168.64550781 C-410.9076709 167.9363623 -410.18692383 167.2272168 -409.44433594 166.49658203 C-407.68787288 164.81024406 -407.68787288 164.81024406 -406.76123047 162.71582031 C-406.10123047 162.71582031 -405.44123047 162.71582031 -404.76123047 162.71582031 C-404.76123047 162.05582031 -404.76123047 161.39582031 -404.76123047 160.71582031 C-404.10123047 160.71582031 -403.44123047 160.71582031 -402.76123047 160.71582031 C-402.76123047 160.05582031 -402.76123047 159.39582031 -402.76123047 158.71582031 C-402.10123047 158.71582031 -401.44123047 158.71582031 -400.76123047 158.71582031 C-400.49610153 158.125047 -400.2309726 157.53427368 -399.95780945 156.92559814 C-398.72354349 154.64622202 -397.45500201 153.17395008 -395.6159668 151.359375 C-394.65905693 150.40753326 -394.65905693 150.40753326 -393.68281555 149.4364624 C-392.99326279 148.76036926 -392.30371002 148.08427612 -391.59326172 147.38769531 C-390.52370491 146.32594086 -390.52370491 146.32594086 -389.43254089 145.24273682 C-387.15096853 142.97896259 -384.86284705 140.7219636 -382.57373047 138.46582031 C-380.30329172 136.22315525 -378.03438118 133.97899872 -375.76847839 131.73175049 C-374.35994015 130.3352963 -372.94873921 128.94152064 -371.53437805 127.55096436 C-367.70249996 123.75736933 -364.09771987 119.84813571 -360.57652283 115.76611328 C-357.24905403 112.00788346 -353.69814498 108.46946168 -350.15966797 104.91113281 C-349.36017731 104.10594208 -348.56068665 103.30075134 -347.73696899 102.47116089 C-346.0592703 100.78407939 -344.38016282 99.09839776 -342.69970703 97.4140625 C-340.12965301 94.8342178 -337.57045715 92.24390046 -335.01123047 89.65332031 C-333.37386828 88.00943485 -331.7358696 86.36618306 -330.09716797 84.72363281 C-329.33560394 83.94972198 -328.57403992 83.17581116 -327.78939819 82.37844849 C-327.07160187 81.66365326 -326.35380554 80.94885803 -325.61425781 80.21240234 C-324.67663101 79.2693071 -324.67663101 79.2693071 -323.72006226 78.30715942 C-321.52138657 76.52097307 -319.39006447 75.72553805 -316.76123047 74.71582031 C-315.56119704 72.89980666 -315.56119704 72.89980666 -314.76123047 70.71582031 C-313.26123047 67.96582031 -313.26123047 67.96582031 -311.76123047 65.71582031 C-311.10123047 65.71582031 -310.44123047 65.71582031 -309.76123047 65.71582031 C-309.36484375 64.84376953 -309.36484375 64.84376953 -308.96044922 63.95410156 C-306.86140669 60.03634466 -303.75284064 56.97266603 -300.76123047 53.71582031 C-300.27009766 53.15894531 -299.77896484 52.60207031 -299.27294922 52.02832031 C-277.95595759 29.11393137 -246.24441091 19.24207778 -215.86572266 17.79101562 C-184.29501767 17.02632727 -155.74844348 28.56818882 -131.38623047 48.12207031 C-130.58185547 48.91097656 -130.58185547 48.91097656 -129.76123047 49.71582031 C-129.76123047 50.37582031 -129.76123047 51.03582031 -129.76123047 51.71582031 C-125.62166952 51.20297421 -123.70140724 50.14772931 -120.80029297 47.18066406 C-120.08099609 46.45298828 -119.36169922 45.7253125 -118.62060547 44.97558594 C-117.88326172 44.20923828 -117.14591797 43.44289062 -116.38623047 42.65332031 C-115.29181641 41.5444043 -115.29181641 41.5444043 -114.17529297 40.41308594 C-110.8308723 36.9999852 -107.5754271 33.54227217 -104.46435547 29.91503906 C-100.02907353 24.78622877 -95.25687438 19.98896198 -90.47363281 15.18798828 C-88.88902056 13.59362757 -87.3154276 11.98888419 -85.74169922 10.38378906 C-62.23659087 -13.36858381 -28.38343279 -20.69543339 0 0 Z " fill="#2889E7" transform="translate(462.76123046875,108.2841796875)"/>
<path d="M0 0 C0.53625 0.5259375 1.0725 1.051875 1.625 1.59375 C1.625 2.25375 1.625 2.91375 1.625 3.59375 C2.615 3.92375 3.605 4.25375 4.625 4.59375 C3.20425676 7.839363 1.48737319 9.9563659 -1.04296875 12.421875 C-1.77193359 13.13988281 -2.50089844 13.85789063 -3.25195312 14.59765625 C-4.01443359 15.33886719 -4.77691406 16.08007812 -5.5625 16.84375 C-10.45304044 21.61976782 -15.17196283 26.43022246 -19.62670898 31.61621094 C-22.7011321 35.09377374 -26.01057165 38.33394635 -29.3125 41.59375 C-30.33827148 42.61275391 -30.33827148 42.61275391 -31.38476562 43.65234375 C-33.04587159 45.30183359 -34.70928513 46.9489168 -36.375 48.59375 C-36.890625 48.325625 -37.40625 48.0575 -37.9375 47.78125 C-43.73684936 44.95592595 -47.81749738 43.22039243 -54.36083984 43.17382812 C-55.02040176 43.16535858 -55.67996368 43.15688904 -56.35951233 43.14816284 C-58.51852226 43.12495292 -60.67681278 43.1237668 -62.8359375 43.125 C-64.35137205 43.11788838 -65.86680394 43.11018793 -67.38223267 43.10192871 C-70.55112195 43.08852043 -73.71976226 43.0868984 -76.88867188 43.09277344 C-80.92927808 43.09866427 -84.96868053 43.0680881 -89.00905418 43.02765656 C-92.13713909 43.00167751 -95.2649381 42.99891132 -98.393116 43.00254822 C-99.88173063 43.00086628 -101.37035981 42.99131377 -102.85886765 42.97340393 C-115.03808757 42.79023355 -115.03808757 42.79023355 -125.375 48.59375 C-131.81152697 55.61120773 -131.09174891 64.56441358 -131.00390625 73.50390625 C-131.00473656 75.04129708 -131.00720202 76.5786878 -131.01121521 78.11607361 C-131.01406055 81.32448321 -130.99949589 84.53218983 -130.97192383 87.74047852 C-130.93781338 91.83485278 -130.94388042 95.92797387 -130.9625864 100.02240849 C-130.97319772 103.19252307 -130.96418187 106.36235035 -130.94920158 109.53243828 C-130.94405147 111.04137759 -130.94446269 112.55034729 -130.95074654 114.0592823 C-130.97180908 122.15293917 -130.84370856 128.61370972 -126.375 135.59375 C-125.69459832 136.92012694 -125.02451698 138.25197881 -124.375 139.59375 C-137.04166667 152.26041667 -149.70833333 164.92708333 -162.375 177.59375 C-162.91335983 178.13734665 -163.45171967 178.6809433 -164.00639343 179.24101257 C-165.59620259 180.81238773 -167.28633756 182.22114586 -169 183.65625 C-173.24058308 187.31571614 -176.85552684 191.40112546 -180.4921875 195.65234375 C-181.11351562 196.29300781 -181.73484375 196.93367187 -182.375 197.59375 C-183.035 197.59375 -183.695 197.59375 -184.375 197.59375 C-184.375 198.25375 -184.375 198.91375 -184.375 199.59375 C-185.035 199.59375 -185.695 199.59375 -186.375 199.59375 C-186.64795898 200.19137146 -186.92091797 200.78899292 -187.20214844 201.40472412 C-188.34199868 203.5321559 -189.44714943 204.91915472 -191.140625 206.61816406 C-191.69459961 207.17844299 -192.24857422 207.73872192 -192.81933594 208.315979 C-193.41520508 208.90779968 -194.01107422 209.49962036 -194.625 210.109375 C-195.23891602 210.72520447 -195.85283203 211.34103394 -196.48535156 211.9755249 C-197.78074483 213.27227646 -199.07865644 214.56651657 -200.37890625 215.85839844 C-202.37475068 217.84350202 -204.35966726 219.83908591 -206.34375 221.8359375 C-207.60352555 223.09439211 -208.86392101 224.35222654 -210.125 225.609375 C-211.01880371 226.5092514 -211.01880371 226.5092514 -211.93066406 227.42730713 C-216.14506753 231.59375 -216.14506753 231.59375 -218.375 231.59375 C-218.375 232.25375 -218.375 232.91375 -218.375 233.59375 C-220.5597753 234.86946484 -222.74761619 236.13935673 -224.9375 237.40625 C-225.54658203 237.76267578 -226.15566406 238.11910156 -226.78320312 238.48632812 C-241.89785309 247.20324265 -257.77063527 248.95752173 -274.64135742 244.49829102 C-290.18229834 239.90302701 -304.00951934 228.01514628 -311.875 213.90234375 C-313.18138236 211.16904971 -314.31280073 208.43030488 -315.375 205.59375 C-315.6946875 204.77777344 -316.014375 203.96179688 -316.34375 203.12109375 C-321.22564351 188.49801457 -319.4070474 170.88280691 -312.71484375 157.19921875 C-305.0429626 143.91914522 -293.48519282 133.58979164 -282.66088867 122.91552734 C-281.86271729 122.1261377 -281.0645459 121.33674805 -280.2421875 120.5234375 C-279.52144043 119.81429199 -278.80069336 119.10514648 -278.05810547 118.37451172 C-276.30164241 116.68817375 -276.30164241 116.68817375 -275.375 114.59375 C-274.715 114.59375 -274.055 114.59375 -273.375 114.59375 C-273.375 113.93375 -273.375 113.27375 -273.375 112.59375 C-272.715 112.59375 -272.055 112.59375 -271.375 112.59375 C-271.375 111.93375 -271.375 111.27375 -271.375 110.59375 C-270.715 110.59375 -270.055 110.59375 -269.375 110.59375 C-269.10987106 110.00297668 -268.84474213 109.41220337 -268.57157898 108.80352783 C-267.33731302 106.5241517 -266.06877154 105.05187977 -264.22973633 103.23730469 C-263.27282646 102.28546295 -263.27282646 102.28546295 -262.29658508 101.31439209 C-261.60703232 100.63829895 -260.91747955 99.96220581 -260.20703125 99.265625 C-259.13747444 98.20387054 -259.13747444 98.20387054 -258.04631042 97.1206665 C-255.76473806 94.85689228 -253.47661658 92.59989329 -251.1875 90.34375 C-248.91706125 88.10108494 -246.64815071 85.85692841 -244.38224792 83.60968018 C-242.97370969 82.21322599 -241.56250874 80.81945033 -240.14814758 79.42889404 C-236.31626949 75.63529901 -232.71148941 71.7260654 -229.19029236 67.64404297 C-225.86282356 63.88581315 -222.31191451 60.34739137 -218.7734375 56.7890625 C-217.97394684 55.98387177 -217.17445618 55.17868103 -216.35073853 54.34909058 C-214.67303983 52.66200907 -212.99393235 50.97632744 -211.31347656 49.29199219 C-208.74342254 46.71214748 -206.18422668 44.12183015 -203.625 41.53125 C-201.98763781 39.88736454 -200.34963913 38.24411274 -198.7109375 36.6015625 C-197.94937347 35.82765167 -197.18780945 35.05374084 -196.40316772 34.25637817 C-195.6853714 33.54158295 -194.96757507 32.82678772 -194.22802734 32.09033203 C-193.29040054 31.14723679 -193.29040054 31.14723679 -192.33383179 30.18508911 C-190.1351561 28.39890275 -188.00383401 27.60346774 -185.375 26.59375 C-184.17496657 24.77773635 -184.17496657 24.77773635 -183.375 22.59375 C-181.875 19.84375 -181.875 19.84375 -180.375 17.59375 C-179.715 17.59375 -179.055 17.59375 -178.375 17.59375 C-177.97861328 16.72169922 -177.97861328 16.72169922 -177.57421875 15.83203125 C-175.47517622 11.91427435 -172.36661017 8.85059572 -169.375 5.59375 C-168.88386719 5.036875 -168.39273438 4.48 -167.88671875 3.90625 C-147.512968 -17.99421593 -116.52983399 -28.78144282 -87.32714844 -30.33105469 C-54.46434019 -31.16811596 -25.44784995 -20.42524798 0 0 Z " fill="#F03F5C" transform="translate(331.375,156.40625)"/>
<path d="M0 0 C0.99 0.33 1.98 0.66 3 1 C2.48050781 1.98097656 1.96101562 2.96195313 1.42578125 3.97265625 C-3.33305842 13.120229 -7.09006965 22.09913943 -10 32 C-10.23460937 32.77988281 -10.46921875 33.55976563 -10.7109375 34.36328125 C-19.11172215 64.74003153 -11.86113532 99.38180058 2.91015625 126.5078125 C7.30571705 133.90074379 12.40166189 140.48634425 18 147 C19.02288394 148.22746073 20.04415027 149.45627491 21.0625 150.6875 C22.0215625 151.8321875 22.0215625 151.8321875 23 153 C22.52691406 153.38929688 22.05382812 153.77859375 21.56640625 154.1796875 C16.52686855 158.44315604 12.17307354 163.04332344 7.8828125 168.05859375 C7.26148438 168.69925781 6.64015625 169.33992187 6 170 C5.34 170 4.68 170 4 170 C4 170.66 4 171.32 4 172 C3.34 172 2.68 172 2 172 C1.72704102 172.59762146 1.45408203 173.19524292 1.17285156 173.81097412 C0.03300132 175.9384059 -1.07214943 177.32540472 -2.765625 179.02441406 C-3.31959961 179.58469299 -3.87357422 180.14497192 -4.44433594 180.722229 C-5.04020508 181.31404968 -5.63607422 181.90587036 -6.25 182.515625 C-6.86391602 183.13145447 -7.47783203 183.74728394 -8.11035156 184.3817749 C-9.40574483 185.67852646 -10.70365644 186.97276657 -12.00390625 188.26464844 C-13.99975068 190.24975202 -15.98466726 192.24533591 -17.96875 194.2421875 C-19.22852555 195.50064211 -20.48892101 196.75847654 -21.75 198.015625 C-22.34586914 198.6155426 -22.94173828 199.21546021 -23.55566406 199.83355713 C-27.77006753 204 -27.77006753 204 -30 204 C-30 204.66 -30 205.32 -30 206 C-32.1847753 207.27571484 -34.37261619 208.54560673 -36.5625 209.8125 C-37.17158203 210.16892578 -37.78066406 210.52535156 -38.40820312 210.89257812 C-53.52285309 219.60949265 -69.39563527 221.36377173 -86.26635742 216.90454102 C-101.80729834 212.30927701 -115.63451934 200.42139628 -123.5 186.30859375 C-124.80638236 183.57529971 -125.93780073 180.83655488 -127 178 C-127.3196875 177.18402344 -127.639375 176.36804688 -127.96875 175.52734375 C-132.85064351 160.90426457 -131.0320474 143.28905691 -124.33984375 129.60546875 C-116.6679626 116.32539522 -105.11019282 105.99604164 -94.28588867 95.32177734 C-93.48771729 94.5323877 -92.6895459 93.74299805 -91.8671875 92.9296875 C-91.14644043 92.22054199 -90.42569336 91.51139648 -89.68310547 90.78076172 C-87.92664241 89.09442375 -87.92664241 89.09442375 -87 87 C-86.34 87 -85.68 87 -85 87 C-85 86.34 -85 85.68 -85 85 C-84.34 85 -83.68 85 -83 85 C-83 84.34 -83 83.68 -83 83 C-82.34 83 -81.68 83 -81 83 C-80.73487106 82.40922668 -80.46974213 81.81845337 -80.19657898 81.20977783 C-78.96231302 78.9304017 -77.69377154 77.45812977 -75.85473633 75.64355469 C-75.21679642 75.00899353 -74.57885651 74.37443237 -73.92158508 73.72064209 C-73.23203232 73.04454895 -72.54247955 72.36845581 -71.83203125 71.671875 C-70.76247444 70.61012054 -70.76247444 70.61012054 -69.67131042 69.5269165 C-67.38973806 67.26314228 -65.10161658 65.00614329 -62.8125 62.75 C-60.54206125 60.50733494 -58.27315071 58.26317841 -56.00724792 56.01593018 C-54.59870969 54.61947599 -53.18750874 53.22570033 -51.77314758 51.83514404 C-48.57692689 48.67085576 -45.4919056 45.46846069 -42.5546875 42.0612793 C-38.66837006 37.5558137 -34.50430955 33.36038162 -30.29296875 29.16015625 C-29.08306023 27.94881264 -29.08306023 27.94881264 -27.84870911 26.71299744 C-26.15826114 25.02187355 -24.46656805 23.33199344 -22.77368164 21.64331055 C-20.1741252 19.04915298 -17.58000325 16.44964575 -14.98632812 13.84960938 C-13.33886258 12.20280389 -11.69108726 10.55630824 -10.04296875 8.91015625 C-9.26592087 8.13108414 -8.48887299 7.35201202 -7.6882782 6.54933167 C-6.97025528 5.83446091 -6.25223236 5.11959015 -5.51245117 4.38305664 C-4.8807048 3.75210587 -4.24895844 3.12115509 -3.59806824 2.47108459 C-2 1 -2 1 0 0 Z " fill="#FD9B01" transform="translate(143,184)"/>
<path d="M0 0 C12.6766429 10.10430222 21.36521001 23.62101163 24.23876953 39.71582031 C25.14408284 50.0357446 25.24717242 61.04680546 21.23876953 70.71582031 C20.56007813 72.37291016 20.56007813 72.37291016 19.86767578 74.06347656 C16.0996328 82.36762885 11.24048472 88.6384012 4.81054688 95.11132812 C3.18546455 96.77023478 1.60902284 98.46520723 0.03955078 100.17675781 C-8.99286954 110.00683972 -18.40772221 119.43609853 -27.90063477 128.81835938 C-28.41306229 129.32652191 -28.92548981 129.83468445 -29.45344543 130.35824585 C-30.8612161 131.75398701 -32.27183245 133.14685625 -33.68261719 134.53955078 C-35.79432648 136.5366986 -35.79432648 136.5366986 -36.76123047 138.71582031 C-37.42123047 138.71582031 -38.08123047 138.71582031 -38.76123047 138.71582031 C-38.76123047 139.37582031 -38.76123047 140.03582031 -38.76123047 140.71582031 C-39.42123047 140.71582031 -40.08123047 140.71582031 -40.76123047 140.71582031 C-40.76123047 141.37582031 -40.76123047 142.03582031 -40.76123047 142.71582031 C-41.42123047 142.71582031 -42.08123047 142.71582031 -42.76123047 142.71582031 C-43.09123047 143.70582031 -43.42123047 144.69582031 -43.76123047 145.71582031 C-44.42123047 145.71582031 -45.08123047 145.71582031 -45.76123047 145.71582031 C-45.96594971 146.24723633 -46.17066895 146.77865234 -46.3815918 147.32617188 C-48.33747312 150.71392031 -51.05929686 153.23844662 -53.83544922 155.95019531 C-54.43750687 156.54705139 -55.03956451 157.14390747 -55.65986633 157.7588501 C-57.58478962 159.66599596 -59.51624394 161.56634097 -61.44873047 163.46582031 C-71.65089687 173.4161876 -71.65089687 173.4161876 -81.23706055 183.94921875 C-84.09679077 187.26381236 -87.17970251 190.35887769 -90.26123047 193.46582031 C-90.88642578 194.11164063 -91.51162109 194.75746094 -92.15576172 195.42285156 C-96.07652628 199.37608623 -99.79753638 202.18280116 -104.76123047 204.71582031 C-103.55347687 201.63418097 -102.27585622 198.5906247 -100.95654297 195.55566406 C-89.43538192 168.61745803 -85.86158766 137.0992022 -94.76123047 108.71582031 C-94.97021973 108.03745117 -95.17920898 107.35908203 -95.39453125 106.66015625 C-101.42662514 87.72796644 -111.63655594 71.52314542 -124.76123047 56.71582031 C-128.12458641 58.17327455 -130.30657052 60.02699885 -132.87060547 62.62988281 C-134.00175781 63.77070313 -134.00175781 63.77070313 -135.15576172 64.93457031 C-135.93306641 65.72863281 -136.71037109 66.52269531 -137.51123047 67.34082031 C-138.30400391 68.14261719 -139.09677734 68.94441406 -139.91357422 69.77050781 C-141.8673754 71.74784877 -143.8163515 73.7297094 -145.76123047 75.71582031 C-145.76123047 72.71582031 -145.76123047 72.71582031 -144.2199707 70.84985352 C-143.51042236 70.16238037 -142.80087402 69.47490723 -142.06982422 68.76660156 C-141.28929687 68.00025391 -140.50876953 67.23390625 -139.70458984 66.44433594 C-138.46418945 65.2484082 -138.46418945 65.2484082 -137.19873047 64.02832031 C-132.05821969 59.02864544 -127.06198702 54.02214177 -122.39428711 48.57592773 C-119.33097564 45.08671109 -115.97713932 41.88997955 -112.65576172 38.64941406 C-109.84562891 35.88010643 -107.16444589 33.06422038 -104.59716797 30.06738281 C-100.11639774 24.88734462 -95.30514748 20.03741403 -90.47363281 15.18798828 C-88.88902056 13.59362757 -87.3154276 11.98888419 -85.74169922 10.38378906 C-62.23659087 -13.36858381 -28.38343279 -20.69543339 0 0 Z " fill="#46C6E9" transform="translate(462.76123046875,108.2841796875)"/>
<path d="M0 0 C0.9910952 -0.01007584 0.9910952 -0.01007584 2.00221252 -0.02035522 C4.18221608 -0.03932016 6.36191131 -0.04325907 8.54199219 -0.04541016 C10.06410853 -0.05184084 11.58622363 -0.0585694 13.1083374 -0.06558228 C16.29930483 -0.07755248 19.49016405 -0.08126354 22.68115234 -0.08007812 C26.75426252 -0.07987534 30.82667182 -0.10713626 34.89961624 -0.14162254 C38.04479099 -0.16395301 41.18979898 -0.16791374 44.33504486 -0.16685867 C45.83564409 -0.16920698 47.33624846 -0.17798684 48.8367691 -0.19352341 C58.61503471 -0.28526133 65.35162847 0.18990884 73.15136719 6.60302734 C77.39975261 11.82247229 78.71219357 16.55618851 78.74291992 23.20043945 C78.74978317 23.8518541 78.75664642 24.50326874 78.76371765 25.17442322 C78.78186532 27.30580075 78.77816585 29.43643367 78.77246094 31.56787109 C78.77702859 33.0632806 78.78233589 34.558688 78.78834534 36.05409241 C78.79725281 39.18011023 78.79488056 42.30587226 78.78491211 45.43188477 C78.77342582 49.42087863 78.79363978 53.40898676 78.82282925 57.39786434 C78.84125116 60.48386666 78.84088696 63.56965904 78.83519173 66.65570259 C78.83503924 68.12558802 78.84102313 69.59548834 78.8534832 71.06532097 C78.92388884 80.73110616 78.41861421 87.45924797 71.96386719 95.10302734 C66.96182631 99.27139474 62.84444262 100.66552637 56.35888672 100.69458008 C55.35272308 100.70487495 55.35272308 100.70487495 54.32623291 100.71537781 C52.12449543 100.73357216 49.92347571 100.7298186 47.72167969 100.72412109 C46.18000052 100.72868707 44.63832338 100.73399388 43.09664917 100.74000549 C39.87050086 100.74892258 36.64460026 100.74653034 33.41845703 100.73657227 C29.3005291 100.72509521 25.18346033 100.74528099 21.06564522 100.7744894 C17.8827071 100.79290954 14.69997257 100.79254727 11.51699448 100.78685188 C9.99966097 100.78669932 8.48231308 100.79268971 6.96503067 100.80514336 C-1.10080445 100.86201648 -7.76072218 100.90297777 -14.66113281 96.29052734 C-16.71972656 94.25537109 -16.71972656 94.25537109 -18.09863281 92.22802734 C-18.80826172 91.220625 -18.80826172 91.220625 -19.53222656 90.19287109 C-21.81402297 86.3477678 -21.80743961 83.04713539 -21.85400391 78.66699219 C-21.8621814 77.9982608 -21.87035889 77.32952942 -21.87878418 76.64053345 C-21.90359148 74.42751954 -21.92014632 72.2145698 -21.93457031 70.00146484 C-21.93989399 69.24317005 -21.94521767 68.48487526 -21.95070267 67.70360184 C-21.97742004 63.68620058 -21.99679532 59.66883018 -22.01123047 55.65136719 C-22.02454199 52.33793358 -22.0523438 49.02511988 -22.09326172 45.71191406 C-22.14278582 41.70130275 -22.16737591 37.69125143 -22.17445755 33.68034744 C-22.18113889 32.15820832 -22.19627917 30.63608015 -22.22034836 29.11411667 C-22.34695584 20.62055791 -22.37370546 13.1122044 -16.66113281 6.29052734 C-13.59863281 3.85302734 -13.59863281 3.85302734 -10.66113281 2.29052734 C-9.7863327 1.75617569 -9.7863327 1.75617569 -8.89385986 1.21102905 C-5.85768283 -0.0407165 -3.28155426 0.02097415 0 0 Z " fill="#F5F9F4" transform="translate(221.6611328125,198.70947265625)"/>
<path d="M0 0 C19.8 0 39.6 0 60 0 C57.83395944 3.61006761 56.48438308 5.76348797 53.64941406 8.56176758 C52.99152893 9.21627396 52.3336438 9.87078033 51.65582275 10.54512024 C50.9495575 11.23792587 50.24329224 11.93073151 49.515625 12.64453125 C48.41489655 13.73745735 48.41489655 13.73745735 47.29193115 14.85246277 C44.94933568 17.17729247 42.60017149 19.49533113 40.25 21.8125 C37.91494967 24.11977512 35.5814322 26.42854758 33.25091553 28.74040222 C31.80342689 30.17580639 30.35327531 31.60853223 28.89996338 33.03804016 C24.95206625 36.94748297 21.19782987 40.95814842 17.58361816 45.17875671 C14.92503485 48.23626585 12.1006097 51.12256104 9.25 54 C8.40501953 54.87591797 8.40501953 54.87591797 7.54296875 55.76953125 C6.0867035 57.23956733 4.54840783 58.62735739 3 60 C2.01 60 1.02 60 0 60 C0 40.2 0 20.4 0 0 Z " fill="#F0415E" transform="translate(220,219)"/>
<path d="M0 0 C0 19.14 0 38.28 0 58 C-18.81 58 -37.62 58 -57 58 C-52.6705572 52.9489834 -48.32951658 48.24297309 -43.58789062 43.62695312 C-40.85590947 40.93793891 -38.26656741 38.18588525 -35.77075195 35.27514648 C-32.19094703 31.16609608 -28.42882822 27.28378925 -24.5703125 23.4375 C-23.89451141 22.76074219 -23.21871033 22.08398438 -22.52243042 21.38671875 C-21.11025626 19.97387005 -19.69684251 18.56225932 -18.28222656 17.15185547 C-16.10624195 14.98128865 -13.93572517 12.8053546 -11.765625 10.62890625 C-10.38834188 9.25228289 -9.01074915 7.8759692 -7.6328125 6.5 C-6.98184601 5.84700928 -6.33087952 5.19401855 -5.66018677 4.52124023 C-1.11498696 0 -1.11498696 0 0 0 Z " fill="#2C8BE8" transform="translate(280,221)"/>
</svg>
