<?xml version="1.0" standalone="no"?>
<!DOCTYPE svg PUBLIC "-//W3C//DTD SVG 20010904//EN" "http://www.w3.org/TR/2001/REC-SVG-20010904/DTD/svg10.dtd">
<!-- Created using Krita: https://krita.org -->
<svg xmlns="http://www.w3.org/2000/svg" 
    xmlns:xlink="http://www.w3.org/1999/xlink"
    xmlns:krita="http://krita.org/namespaces/svg/krita"
    xmlns:sodipodi="http://sodipodi.sourceforge.net/DTD/sodipodi-0.dtd"
    width="325pt"
    height="306pt"
    viewBox="0 0 325 306">
<defs/>
<path id="shape0" transform="translate(52.6327871993065, 146.45208022896)" fill="#9d9d9f" fill-rule="evenodd" stroke="#9d9d9f" stroke-width="1" stroke-linecap="square" stroke-linejoin="bevel" d="M0 82.47L47.6838 0L63.1593 26.7019L32.5152 83.3896Z" sodipodi:nodetypes="ccccc"/><path id="shape1" transform="translate(116.348783723264, 173.742238880209)" fill="#9d9d9f" fill-rule="evenodd" stroke="#9d9d9f" stroke-width="1" stroke-linecap="square" stroke-linejoin="bevel" d="M0 0L33.4333 0.591794L63.2019 53.0471L49.6244 82.0523Z" sodipodi:nodetypes="ccccc"/><path id="shape2" transform="translate(8.15914158565507, 61.8308806187389)" fill="#4046cb" fill-rule="evenodd" stroke="#4046cb" stroke-width="1" stroke-linecap="square" stroke-linejoin="bevel" d="M0 192.98L17.2881 222.748L301.48 222.334L236.499 110L236.002 109.28L220.089 142.11L235.907 168.477L176.567 166.717L221.511 86.1155L171.898 0L156.406 29.1901L187.526 85.477L156.848 138.981L171.339 164.372L157.51 195.265L107.69 112.587L92.0972 140.962L124.389 195.722Z" sodipodi:nodetypes="ccccccccccccccccccc"/><path id="shape3" transform="translate(120.09290291646, 9.04240657689649)" fill="#b2b2b2" fill-rule="evenodd" stroke="#b2b2b2" stroke-width="1" stroke-linecap="square" stroke-linejoin="bevel" d="M0 104.493L29.6501 105.484L60.1279 52.7605L110.184 139.324L65.3989 218.572L95.4934 220.033L124.12 162.021L190.067 275.017L201.151 248.112L56.7095 0Z" sodipodi:nodetypes="ccccccccccc"/><path id="shape4" transform="translate(100.009083426375, 146.185804573341)" fill="#b2b2b2" fill-rule="evenodd" stroke="#b2b2b2" stroke-width="1" stroke-linecap="square" stroke-linejoin="bevel" d="M0 0L94.7121 1.5847L79.6713 28.281L16.4334 26.9135Z" sodipodi:nodetypes="ccccc"/><path id="shape5" transform="translate(8.210280457276, 8.65758297496815)" fill="#9bd9e9" fill-rule="evenodd" stroke="#9bd9e9" stroke-width="1" stroke-linecap="square" stroke-linejoin="bevel" d="M141.853 0.0634388L167.893 0L111.072 106.209L169.471 107.29L186.545 138.703L91.7462 137.11L43.5104 220.758L108.802 222.679L123.502 248.475L0 246.068Z" sodipodi:nodetypes="ccccccccccc"/>
</svg>
